# File created by Blade
# Date/Time:  Thu Jan 22 16:52:56 2015
# Frame Rate: 120.000 fps
#------------------------------------------------------
:FULLY-SPECIFIED
:DEGREES
2134
root 3.141682 3.442000 -0.316969 -44.567415 3.587624 -0.489767
RightUpLeg -30.487541 -28.665804 -39.406731
RightLeg 1.576603 -0.000000 -0.000000
RightFoot 4.525181 -26.770026 29.192515
RightToeBase 6.213001 -0.000000 -0.000000
LeftUpLeg -41.059194 25.168727 17.474729
LeftLeg 1.144763 -0.000000 -0.000000
LeftFoot 7.790460 32.635477 -37.600614
LeftToeBase -0.531094 -0.000000 0.000000
Spine 74.661868 11.647941 2.684408
RightShoulder -7.134035 -14.711676 -29.687379
RightArm 71.071554 47.411660 43.641618
RightForeArm -19.421424 -0.000000 81.644982
RightHand 6.571455 -0.000000 -12.252295
RightHandThumb1 -24.326973 -0.000000 -32.862282
LeftShoulder 20.458684 5.146397 45.922044
LeftArm 25.681568 -47.021812 -75.913829
LeftForeArm 19.305547 -0.000000 41.292732
LeftHand -17.134432 -0.000000 4.314715
LeftHandThumb1 -26.253704 0.000000 33.147579
Head 12.152738 -0.169323 15.064514
2135
root 3.138617 3.439593 -0.317870 -44.652830 3.593133 -0.456028
RightUpLeg -30.444990 -28.621962 -39.446087
RightLeg 1.584319 -0.000000 -0.000000
RightFoot 4.519112 -26.828042 29.181823
RightToeBase 6.042750 -0.000000 -0.000000
LeftUpLeg -40.948598 25.087528 17.543455
LeftLeg 1.159702 -0.000000 -0.000000
LeftFoot 7.783035 32.603746 -37.554192
LeftToeBase -0.286401 -0.000000 0.000000
Spine 74.582210 11.521886 2.824845
RightShoulder -6.992083 -14.558947 -29.687882
RightArm 69.859216 46.919138 44.065416
RightForeArm -18.793630 -0.000000 83.116329
RightHand 6.639304 -0.000000 -12.657490
RightHandThumb1 -24.326973 -0.000000 -32.862282
LeftShoulder 20.548336 5.382895 45.740839
LeftArm 25.480333 -46.709167 -75.986911
LeftForeArm 19.493064 -0.000000 41.937489
LeftHand -17.016454 -0.000000 4.227500
LeftHandThumb1 -26.253704 0.000000 33.147579
Head 11.755877 -0.316253 15.353572
2136
root 3.135249 3.436436 -0.320522 -44.700757 3.591117 -0.414400
RightUpLeg -30.469927 -28.632295 -39.434751
RightLeg 1.607844 -0.000000 -0.000000
RightFoot 4.558023 -26.820066 29.162821
RightToeBase 6.188015 -0.000000 -0.000000
LeftUpLeg -40.887022 25.056480 17.566462
LeftLeg 1.164826 -0.000000 -0.000000
LeftFoot 7.816398 32.560436 -37.488191
LeftToeBase -0.291100 -0.000000 0.000000
Spine 74.492781 11.441092 2.945433
RightShoulder -6.837886 -14.106316 -29.674235
RightArm 68.241591 46.254022 44.220209
RightForeArm -18.258031 -0.000000 84.640900
RightHand 6.769601 -0.000000 -13.130606
RightHandThumb1 -24.326973 -0.000000 -32.862282
LeftShoulder 20.443933 5.319753 45.487857
LeftArm 25.088809 -46.184039 -75.961311
LeftForeArm 19.802363 -0.000000 42.517053
LeftHand -16.937153 -0.000000 4.134474
LeftHandThumb1 -26.253704 0.000000 33.147579
Head 11.333073 -0.634507 15.551536
2137
root 3.131501 3.432220 -0.323283 -44.770253 3.573091 -0.368901
RightUpLeg -30.488838 -28.603504 -39.426168
RightLeg 1.640033 -0.000000 -0.000000
RightFoot 4.571717 -26.818337 29.160279
RightToeBase 6.193576 -0.000000 -0.000000
LeftUpLeg -40.778291 25.005217 17.646430
LeftLeg 1.164975 -0.000000 -0.000000
LeftFoot 7.867922 32.502737 -37.417692
LeftToeBase -0.550054 -0.000000 0.000000
Spine 74.427714 11.355461 3.067194
RightShoulder -6.679600 -13.787014 -29.679394
RightArm 66.681232 45.707293 44.422073
RightForeArm -17.762131 -0.000000 86.154775
RightHand 6.937376 -0.000000 -13.727232
RightHandThumb1 -24.326973 -0.000000 -32.862282
LeftShoulder 20.345221 5.309095 45.243714
LeftArm 24.730369 -45.679673 -75.966700
LeftForeArm 20.041488 0.000000 43.114047
LeftHand -16.803752 -0.000000 3.980081
LeftHandThumb1 -26.253704 0.000000 33.147579
Head 10.897341 -0.789342 15.805452
2138
root 3.127538 3.429459 -0.325883 -44.835631 3.551858 -0.332245
RightUpLeg -30.499812 -28.575987 -39.412427
RightLeg 1.665473 -0.000000 -0.000000
RightFoot 4.600652 -26.803901 29.147015
RightToeBase 6.185115 -0.000000 -0.000000
LeftUpLeg -40.684946 24.964208 17.714213
LeftLeg 1.175618 -0.000000 -0.000000
LeftFoot 7.908286 32.437302 -37.335383
LeftToeBase -0.259499 -0.000000 0.000000
Spine 74.354833 11.263310 3.215732
RightShoulder -6.467833 -13.358151 -29.724333
RightArm 64.848228 45.120979 44.482155
RightForeArm -17.441723 -0.000000 87.696293
RightHand 7.154968 -0.000000 -14.205669
RightHandThumb1 -24.326973 -0.000000 -32.862282
LeftShoulder 20.309646 5.578288 45.017701
LeftArm 24.725147 -45.271895 -76.131464
LeftForeArm 20.268489 0.000000 43.742417
LeftHand -16.721590 0.000000 3.852870
LeftHandThumb1 -26.253704 0.000000 33.147579
Head 10.451632 -0.873137 16.083249
2139
root 3.123842 3.428710 -0.327548 -44.928225 3.517051 -0.277225
RightUpLeg -30.493304 -28.514583 -39.409523
RightLeg 1.683294 -0.000000 -0.000000
RightFoot 4.642467 -26.751526 29.089491
RightToeBase 5.997875 -0.000000 -0.000000
LeftUpLeg -40.528920 24.899169 17.828018
LeftLeg 1.181965 -0.000000 -0.000000
LeftFoot 7.915376 32.357395 -37.261730
LeftToeBase -0.223724 -0.000000 0.000000
Spine 74.307512 11.183454 3.331412
RightShoulder -6.197083 -12.927629 -29.775665
RightArm 62.933452 44.576025 44.493876
RightForeArm -17.160306 -0.000000 89.195799
RightHand 7.372966 0.000000 -14.723652
RightHandThumb1 -24.326973 -0.000000 -32.862282
LeftShoulder 20.280661 5.783888 44.757553
LeftArm 24.566802 -44.864278 -76.155230
LeftForeArm 20.627003 -0.000000 44.341218
LeftHand -16.693789 -0.000000 3.658523
LeftHandThumb1 -26.253704 0.000000 33.147579
Head 10.040038 -1.024081 16.256118
2140
root 3.120705 3.427500 -0.330524 -45.019810 3.500914 -0.225986
RightUpLeg -30.481439 -28.469041 -39.417383
RightLeg 1.701752 -0.000000 -0.000000
RightFoot 4.677075 -26.705539 29.065030
RightToeBase 6.219455 -0.000000 -0.000000
LeftUpLeg -40.379877 24.832713 17.916436
LeftLeg 1.171686 -0.000000 -0.000000
LeftFoot 7.953508 32.270420 -37.191126
LeftToeBase -0.209986 -0.000000 0.000000
Spine 74.273254 11.104121 3.447397
RightShoulder -5.966363 -12.641477 -29.747747
RightArm 61.161253 44.143897 44.581022
RightForeArm -16.914281 -0.000000 90.672179
RightHand 7.445847 0.000000 -15.197271
RightHandThumb1 -24.326973 -0.000000 -32.862282
LeftShoulder 20.273388 5.890076 44.523887
LeftArm 24.267564 -44.427501 -76.125329
LeftForeArm 20.838577 -0.000000 44.962303
LeftHand -16.641805 -0.000000 3.604563
LeftHandThumb1 -26.253704 0.000000 33.147579
Head 9.606386 -1.214486 16.422251
2141
root 3.118088 3.426236 -0.334629 -45.117548 3.486086 -0.172542
RightUpLeg -30.464322 -28.418819 -39.422828
RightLeg 1.705095 -0.000000 -0.000000
RightFoot 4.705076 -26.691527 29.060615
RightToeBase 6.211922 -0.000000 -0.000000
LeftUpLeg -40.227355 24.763649 17.997610
LeftLeg 1.159900 -0.000000 -0.000000
LeftFoot 7.961399 32.217129 -37.168726
LeftToeBase -0.221434 -0.000000 0.000000
Spine 74.249902 11.023719 3.543072
RightShoulder -5.680746 -12.252465 -29.725729
RightArm 59.156760 43.703871 44.519479
RightForeArm -16.508661 0.000000 92.093363
RightHand 7.651408 -0.000000 -15.517328
RightHandThumb1 -24.326973 -0.000000 -32.862282
LeftShoulder 20.284107 5.965520 44.293110
LeftArm 23.831455 -43.964241 -75.977937
LeftForeArm 20.949179 0.000000 45.593919
LeftHand -16.569994 -0.000000 3.596467
LeftHandThumb1 -26.253704 0.000000 33.147579
Head 9.153157 -1.404577 16.570561
2142
root 3.115125 3.425312 -0.338498 -45.214169 3.472159 -0.119280
RightUpLeg -30.442182 -28.348947 -39.445540
RightLeg 1.724186 -0.000000 -0.000000
RightFoot 4.712789 -26.661945 29.055201
RightToeBase 6.202530 -0.000000 -0.000000
LeftUpLeg -40.090501 24.713553 18.059744
LeftLeg 1.162919 -0.000000 -0.000000
LeftFoot 7.979073 32.143835 -37.134102
LeftToeBase -0.094972 -0.000000 0.000000
Spine 74.245141 10.924244 3.616538
RightShoulder -5.437426 -11.839250 -29.718906
RightArm 57.237239 43.208723 44.571962
RightForeArm -16.247630 -0.000000 93.420317
RightHand 7.984840 -0.000000 -16.005682
RightHandThumb1 -24.326973 -0.000000 -32.862282
LeftShoulder 20.180139 6.052886 44.018136
LeftArm 23.539177 -43.508042 -75.950067
LeftForeArm 21.301087 -0.000000 46.192857
LeftHand -16.400758 -0.000000 3.356628
LeftHandThumb1 -26.253704 0.000000 33.147579
Head 8.677982 -1.474192 16.702690
2143
root 3.113189 3.425600 -0.342425 -45.303695 3.458146 -0.058949
RightUpLeg -30.424425 -28.281238 -39.471684
RightLeg 1.732846 -0.000000 -0.000000
RightFoot 4.733017 -26.643639 29.035443
RightToeBase 6.023153 -0.000000 -0.000000
LeftUpLeg -39.950877 24.659268 18.126090
LeftLeg 1.162052 -0.000000 -0.000000
LeftFoot 7.985067 32.079737 -37.122984
LeftToeBase -0.138386 -0.000000 0.000000
Spine 74.215618 10.847783 3.730941
RightShoulder -5.204401 -11.466098 -29.672396
RightArm 55.315302 42.725249 44.616426
RightForeArm -15.772346 -0.000000 94.680480
RightHand 8.266539 0.000000 -16.418689
RightHandThumb1 -24.326973 -0.000000 -32.862282
LeftShoulder 20.232795 6.132742 43.729627
LeftArm 23.144683 -43.104736 -75.785371
LeftForeArm 21.545442 -0.000000 46.816915
LeftHand -16.289157 -0.000000 3.256894
LeftHandThumb1 -26.253704 0.000000 33.147579
Head 8.255940 -1.668035 16.809220
2144
root 3.110561 3.424352 -0.346155 -45.386195 3.443570 -0.008331
RightUpLeg -30.413962 -28.224885 -39.485438
RightLeg 1.748317 -0.000000 -0.000000
RightFoot 4.733378 -26.605662 29.043945
RightToeBase 6.242496 -0.000000 -0.000000
LeftUpLeg -39.835039 24.605460 18.192510
LeftLeg 1.183352 -0.000000 -0.000000
LeftFoot 7.965328 32.001114 -37.096172
LeftToeBase -0.094359 -0.000000 0.000000
Spine 74.195980 10.767270 3.811777
RightShoulder -4.974016 -10.962250 -29.609365
RightArm 53.229733 42.159024 44.548610
RightForeArm -15.309357 -0.000000 95.850857
RightHand 8.561068 0.000000 -16.939672
RightHandThumb1 -24.326973 -0.000000 -32.862282
LeftShoulder 20.183359 6.200097 43.461599
LeftArm 22.801310 -42.666890 -75.695771
LeftForeArm 21.834774 -0.000000 47.407903
LeftHand -16.133556 -0.000000 3.085498
LeftHandThumb1 -26.253704 0.000000 33.147579
Head 7.777385 -1.739067 16.942683
2145
root 3.106009 3.425891 -0.351150 -45.507721 3.418651 0.053803
RightUpLeg -30.375618 -28.119120 -39.510086
RightLeg 1.764061 -0.000000 -0.000000
RightFoot 4.737421 -26.583680 29.003750
RightToeBase 6.215328 -0.000000 -0.000000
LeftUpLeg -39.672735 24.577659 18.257588
LeftLeg 1.196715 -0.000000 -0.000000
LeftFoot 8.025736 31.901369 -36.942622
LeftToeBase -0.657190 -0.000000 0.000000
Spine 74.204337 10.672209 3.834915
RightShoulder -4.723541 -10.696631 -29.496613
RightArm 51.519833 41.771615 44.624924
RightForeArm -14.746981 -0.000000 96.846349
RightHand 8.983914 -0.000000 -17.680229
RightHandThumb1 -24.326973 -0.000000 -32.862282
LeftShoulder 20.162039 6.340088 43.228476
LeftArm 22.447151 -42.320685 -75.604658
LeftForeArm 21.977474 -0.000000 47.968813
LeftHand -15.901242 -0.000000 2.857945
LeftHandThumb1 -26.253704 0.000000 33.147579
Head 7.354282 -1.835223 16.998850
